<?xml version="1.0" encoding="UTF-8"?>
<svg version="1.1" viewBox="0 0 80 80" xmlns="http://www.w3.org/2000/svg">
<g>
<path d="m40.017 32.99s12-13.882 12-20.51c0-6.6274-5.3726-12-12-12s-12 5.3726-12 12c0 6.6274 12 20.51 12 20.51z" fill="#50E3C2"/>
<path d="m46.08 36.49s18.022 3.4512 23.762 0.13749 7.706-10.653 4.3923-16.392c-3.3137-5.7395-10.653-7.706-16.392-4.3923s-11.762 20.647-11.762 20.647z" fill="#F5A623"/>
<circle cx="40.08" cy="11.43" r="4.042" fill-opacity=".19792"/>
<path d="m46.08 43.49s6.0223 17.333 11.762 20.647 13.079 1.3472 16.392-4.3923 1.3472-13.079-4.3923-16.392-23.762 0.13749-23.762 0.13749z" fill="#B8E986"/>
<circle cx="64.472" cy="25.367" r="4.042" fill-opacity=".19792"/>
<path d="m40.017 46.99s-12 13.882-12 20.51 5.3726 12 12 12 12-5.3726 12-12-12-20.51-12-20.51z" fill="#D273E5"/>
<circle cx="64.199" cy="54.66" r="4.042" fill-opacity=".19792"/>
<path d="m33.955 43.49s-18.022-3.4512-23.762-0.13749c-5.7395 3.3137-7.706 10.653-4.3923 16.392s10.653 7.706 16.392 4.3923c5.7395-3.3137 11.762-20.647 11.762-20.647z" fill="#FF82AB"/>
<path d="m33.955 36.49s-6.0223-17.333-11.762-20.647c-5.7395-3.3137-13.079-1.3472-16.392 4.3923-3.3137 5.7395-1.3472 13.079 4.3923 16.392 5.7395 3.3137 23.762-0.13749 23.762-0.13749z" fill="#7FB3F0"/>
<circle cx="40.08" cy="69.287" r="4.042" fill-opacity=".19792"/>
<circle cx="15.836" cy="26.367" r="4.042" fill-opacity=".19792"/>
<circle cx="15.418" cy="54.66" r="4.042" fill-opacity=".19792"/>
</g>
</svg>
